<svg t="1718281212376" class="icon" viewBox="0 0 1024 1024" version="1.1" xmlns="http://www.w3.org/2000/svg" p-id="2134" width="16" height="16"><path d="M419.593686 16.520059l170.024449 194.317197-81.0598 786.140057-121.001174-2.378888L262.661383 222.653228z" fill="#7AFFC3" p-id="2135"></path><path d="M343.774874 444.525883V255.251435l75.818812-214.76077-149.163745 189.931121 41.250588 264.370507z" fill="#E0FFF2" p-id="2136"></path><path d="M508.562465 1013.497372l-0.330401-0.00413-121.001174-2.378888a16.515929 16.515929 0 0 1-15.983157-13.87685L246.351955 225.292307a16.528319 16.528319 0 0 1 3.163591-12.646105L406.447849 6.513033a16.520059 16.520059 0 0 1 25.573051-0.871433l170.02858 194.317197a16.524189 16.524189 0 0 1 3.997854 12.571765l-81.0598 786.144187a16.520059 16.520059 0 0 1-16.425069 14.822623z m-106.897173-35.146426l92.020859 1.808947 78.767643-763.866888L420.481639 42.621753l-140.379203 184.392771 121.562856 751.336422z" fill="#6E6E96" p-id="2137"></path><path d="M318.346373 510.55243l105.302987 461.372213-55.93279-4.365425z" fill="#B5FFEE" opacity=".48" p-id="2138"></path><path d="M810.107236 157.659185l65.419434 227.208634-362.58639 524.718381-159.802662-89.076159 233.333446-588.75013z" fill="#7AFFC3" p-id="2139"></path><path d="M536.188134 482.290739l97.63768-188.493876 159.897653-112.869175-207.252403 60.455157-82.938957 199.653176z" fill="#E0FFF2" p-id="2140"></path><path d="M512.92376 926.106259a16.520059 16.520059 0 0 1-13.575358-25.911713l358.134233-518.275557-58.493399-203.171948-200.004227 66.270217-54.326215 137.091711a16.520059 16.520059 0 1 1-30.71492-12.171153l57.171795-144.261417a16.515929 16.515929 0 0 1 10.163966-9.594025l223.636172-74.100725a16.495279 16.495279 0 0 1 12.898036 1.069674 16.507669 16.507669 0 0 1 8.173299 10.040066l65.419435 227.212764a16.520059 16.520059 0 0 1-2.283898 13.96358l-362.58639 524.718381a16.532449 16.532449 0 0 1-13.612529 7.120145z" fill="#6E6E96" p-id="2141"></path><path d="M518.38364 464.490375l-92.487551 376.240218-46.896319-30.68188z" fill="#B5FFEE" opacity=".48" p-id="2142"></path><path d="M547.156855 664.236341a51.889506 97.823531 21.575 1 0-71.943108 181.939445 51.889506 97.823531 21.575 1 0 71.943108-181.939445Z" fill="#FFFF00" opacity=".48" p-id="2143"></path><path d="M976.340331 553.785425l-56.804223 247.920658-417.424726 204.249882-24.656189-92.875773 245.835001-373.146837z" fill="#7AFFC3" p-id="2144"></path><path d="M631.760806 716.433668l110.477896-110.477896 217.51136-37.438584-224.738886-15.268665z" fill="#E0FFF2" p-id="2145"></path><path d="M520.176066 771.288524l-46.933488 132.643686-30.533199-51.596275z" fill="#B5FFEE" opacity=".48" p-id="2146"></path><path d="M510.383801 1018.35014a16.520059 16.520059 0 0 1-7.268826-31.363333l402.081721-196.658914 50.667022-221.120993-223.681602-12.241364-104.051593 168.120513a16.520059 16.520059 0 1 1-28.09649-17.391493l109.209981-176.459012a16.594399 16.594399 0 0 1 14.950654-7.801598l253.050137 13.85207a16.520059 16.520059 0 0 1 15.202584 20.187512l-56.804224 247.920659a16.536579 16.536579 0 0 1-8.846491 11.146909L517.631977 1016.665094a16.445719 16.445719 0 0 1-7.248176 1.685046z" fill="#6E6E96" p-id="2147"></path><path d="M63.821821 397.030713L47.636293 663.94944l326.53549 330.772885 116.309477-95.452902-163.742697-406.034145z" fill="#7AFFC3" p-id="2148"></path><path d="M67.951836 414.942587l188.564085 162.573903 58.187779-88.683808z" fill="#E0FFF2" p-id="2149"></path><path d="M370.041768 1017.813238a16.474629 16.474629 0 0 1-11.944002-5.104698L35.69229 675.3648a16.520059 16.520059 0 0 1-4.547146-12.414824l16.185528-266.922857a16.520059 16.520059 0 0 1 22.165789-14.512872l262.920872 96.204565a16.511799 16.511799 0 0 1 9.643585 9.333834l163.738567 406.034145a16.520059 16.520059 0 0 1-30.64471 12.357004l-160.987977-399.223751-235.200213-86.061248-14.405492 237.587361 317.420548 332.127531a16.520059 16.520059 0 0 1-0.528642 23.355233 16.433329 16.433329 0 0 1-11.411231 4.584317z" fill="#6E6E96" p-id="2150"></path><path d="M422.294716 780.225876l-5.41445 136.476339 47.44148-32.536256z" fill="#B5FFEE" opacity=".48" p-id="2151"></path><path d="M413.448224 338.334943l170.032709 227.357314-81.07219 438.999924-112.732884-2.383019-133.159938-424.792672z" fill="#7AFFC3" p-id="2152"></path><path d="M421.010281 348.445219L334.395611 594.598231l12.390044 254.508032-90.269734-271.589773z" fill="#E0FFF2" p-id="2153"></path><path d="M54.430167 145.302181h99.120355v33.040118h-99.120355z" fill="#6E6E96" p-id="2154"></path><path d="M87.470286 97.807011h33.040118v167.265599h-33.040118z" fill="#6E6E96" p-id="2155"></path><path d="M502.412873 1021.21224l-0.330401-0.00413-120.992914-2.383019a16.515929 16.515929 0 0 1-16.189658-16.8422c0.177591-9.123203 7.727258-16.503539 16.8422-16.189658l106.967384 2.106308 77.214756-418.097919-151.592193-202.701126-139.825781 213.108763 80.209017 275.459598a16.520059 16.520059 0 1 1-31.718513 9.234713l-82.340105-282.773854a16.520059 16.520059 0 0 1 2.048487-13.678609L399.637454 329.26956a16.520059 16.520059 0 0 1 27.039207-0.830133l170.03271 227.361445a16.520059 16.520059 0 0 1 3.014911 12.893906l-81.076321 438.999924a16.515929 16.515929 0 0 1-16.235088 13.517538z" fill="#6E6E96" p-id="2156"></path><path d="M76.806587 422.578985l26.308195 229.839453 280.841006 291.166044 80.535289 4.130015 107.384515-377.896355-69.466849 434.874039-128.23696-4.130015L47.636293 663.94944z" fill="#6E6E96" opacity=".15" p-id="2157"></path><path d="M596.655681 569.818142l-18.585067 330.401184 293.231051-132.160473 95.213361-214.81033-46.978918 248.45756-417.127365 202.986098z" fill="#6E6E96" opacity=".15" p-id="2158"></path><path d="M793.587176 157.659185l1.309215 217.362679-202.540056 271.197422-7.582707 134.795423L859.597203 384.867819zM419.593686 40.490665l87.576964 187.225961-41.300148 170.705902 35.790708 55.069617L589.618135 210.837256zM404.490222 348.445219l94.420398 250.972739-34.419543 348.296539 107.384515-377.896355zM103.114782 652.418438l10.325037-154.875555 216.293005 331.421298-73.216903-251.447691-179.709334-154.937505z" fill="#6E6E96" opacity=".15" p-id="2159"></path><path d="M346.785655 849.106263l18.585067-244.182995 51.625185-142.485511 81.914713 136.980201L411.635147 363.358702l-77.239536 231.239529zM343.774874 255.251435L425.255936 121.711536l81.914714 106.00509L419.593686 40.490665z" fill="#6E6E96" opacity=".15" p-id="2160"></path><path d="M633.825814 293.796863l7.859418-3.341182 120.171041-51.038723 33.040118 135.604906-1.172924-194.094176" fill="#E0FFF2" p-id="2161"></path><path d="M624.40112 723.892474l141.585167-85.929088 125.965452-18.585066-20.650074 148.680533 89.551111-202.032064-218.614074 39.928983z" fill="#FFFFFF" p-id="2162"></path></svg>